HIERARCHY
ROOT Pelvis
{
	OFFSET 0.000000 0.000000 0.000000
	CHANNELS 6 Xposition Yposition Zposition Xrotation Yrotation Zrotation
	JOINT LeftUpLeg_virtual
	{
		OFFSET 0.000000 0.000000 0.000000
		CHANNELS 3 Xrotation Yrotation Zrotation
		JOINT LeftUpLeg
		{
			OFFSET 18.735201 -5.666702 -4.541200
			CHANNELS 3 Xrotation Yrotation Zrotation
			JOINT LeftLeg
			{
				OFFSET -0.021200 -31.938179 0.493100
				CHANNELS 3 Xrotation Yrotation Zrotation
				JOINT LeftFoot
				{
					OFFSET 0.021200 -31.938179 -4.336299
					CHANNELS 3 Xrotation Yrotation Zrotation
					JOINT LeftToeBase
					{
						OFFSET 0.943001 -26.722000 15.023500
						CHANNELS 3 Xrotation Yrotation Zrotation
						End Site
						{
							OFFSET 0 0 0
						}
					}
				}
			}
		}
	}
	JOINT RightUpLeg_virtual
	{
		OFFSET 0.000000 0.000000 0.000000
		CHANNELS 3 Xrotation Yrotation Zrotation
		JOINT RightUpLeg
		{
			OFFSET -18.735201 -5.666702 -4.541200
			CHANNELS 3 Xrotation Yrotation Zrotation
			JOINT RightLeg
			{
				OFFSET 0.018946 -31.938133 0.493100
				CHANNELS 3 Xrotation Yrotation Zrotation
				JOINT RightFoot
				{
					OFFSET -0.018946 -31.938126 -4.336299
					CHANNELS 3 Xrotation Yrotation Zrotation
					JOINT RightToeBase
					{
						OFFSET -0.943001 -26.722004 15.023500
						CHANNELS 3 Xrotation Yrotation Zrotation
						End Site
						{
							OFFSET 0 0 0
						}
					}
				}
			}
		}
	}
	JOINT Hips_virtual
	{
		OFFSET 0.000000 0.000000 0.000000
		CHANNELS 3 Xrotation Yrotation Zrotation
		JOINT Hips
		{
			OFFSET -0.000000 -0.000000 -0.000000
			CHANNELS 3 Xrotation Yrotation Zrotation
			JOINT Spine
			{
				OFFSET 0.000000 10.199997 -0.299500
				CHANNELS 3 Xrotation Yrotation Zrotation
				JOINT Spine1
				{
					OFFSET 0.000000 11.900002 -1.516600
					CHANNELS 3 Xrotation Yrotation Zrotation
					JOINT Spine2
					{
						OFFSET 0.000000 13.600006 -2.842500
						CHANNELS 3 Xrotation Yrotation Zrotation
						JOINT Neck_virtual
						{
							OFFSET 0.000000 0.000000 0.000000
							CHANNELS 3 Xrotation Yrotation Zrotation
							JOINT Neck
							{
								OFFSET 0.000000 9.624100 -2.890100
								CHANNELS 3 Xrotation Yrotation Zrotation
								JOINT Head
								{
									OFFSET 0.000000 14.068802 -1.351900
									CHANNELS 3 Xrotation Yrotation Zrotation
									End Site
									{
										OFFSET 0 0 0
									}
								}
							}
						}
						JOINT LeftShoulder_virtual
						{
							OFFSET 0.000000 0.000000 0.000000
							CHANNELS 3 Xrotation Yrotation Zrotation
							JOINT LeftShoulder
							{
								OFFSET 15.263000 10.923401 -0.547700
								CHANNELS 3 Xrotation Yrotation Zrotation
								JOINT LeftArm
								{
									OFFSET 25.438599 -2.830597 -13.032500
									CHANNELS 3 Xrotation Yrotation Zrotation
									JOINT LeftForeArm
									{
										OFFSET 29.960503 0.000000 0.000000
										CHANNELS 3 Xrotation Yrotation Zrotation
										JOINT LeftHand
										{
											OFFSET 27.849251 0.000000 0.000000
											CHANNELS 3 Xrotation Yrotation Zrotation
											End Site
											{
												OFFSET 0 0 0
											}
										}
									}
								}
							}
						}
						JOINT RightShoulder_virtual
						{
							OFFSET 0.000000 0.000000 0.000000
							CHANNELS 3 Xrotation Yrotation Zrotation
							JOINT RightShoulder
							{
								OFFSET -15.263000 10.923401 -0.547700
								CHANNELS 3 Xrotation Yrotation Zrotation
								JOINT RightArm
								{
									OFFSET -25.438599 -2.830597 -13.032500
									CHANNELS 3 Xrotation Yrotation Zrotation
									JOINT RightForeArm
									{
										OFFSET -29.960503 0.000000 0.000000
										CHANNELS 3 Xrotation Yrotation Zrotation
										JOINT RightHand
										{
											OFFSET -27.849251 0.000000 0.000000
											CHANNELS 3 Xrotation Yrotation Zrotation
											End Site
											{
												OFFSET 0 0 0
											}
										}
									}
								}
							}
						}
					}
				}
			}
		}
	}
}
MOTION
Frames: 4
Frame Time: 0.03333333
-3.903346 87.879501 2.981558 0.000000 0.000000 0.000000 -5.655563 -42.315856 -2.610308 -32.882867 2.191886 14.377705 37.911774 -13.085162 2.273987 -3.095209 0.955351 -13.278547 0.000000 0.000000 0.000000 -5.655563 -42.315856 -2.610308 -1.449735 -13.845954 -19.018884 35.889683 19.295653 -4.971372 -33.253227 -2.671249 6.896956 0.000000 0.000000 0.000000 -5.655563 -42.315856 -2.610308 0.000000 -0.000002 0.000000 5.901347 0.404862 -0.116870 11.805247 0.991256 -0.356034 0.000000 0.000000 0.000000 11.805243 0.991262 -0.356034 1.121411 -5.594722 -0.520288 0.000000 0.000000 0.000000 11.805243 0.991262 -0.356034 0.953416 -3.294059 -6.337557 -7.803589 10.695485 -60.595697 -1.858059 -56.426344 -5.060462 0.000000 0.000000 0.000000 11.805243 0.991262 -0.356034 1.781017 9.143871 7.041881 5.733445 -24.152575 68.587626 -7.143953 60.700274 7.121734 0.000000 0.000000 0.000000 
-4.019488 87.989708 2.887320 0.000000 0.000000 0.000000 -5.742397 -44.229453 -2.751130 -31.970599 2.539618 15.125114 37.787195 -11.867240 2.103141 -3.660641 1.056525 -13.611875 0.000000 0.000000 0.000000 -5.742397 -44.229453 -2.751130 -2.780129 -13.546458 -19.327152 36.484699 19.863006 -5.361154 -32.758608 -2.644964 7.133912 0.000000 0.000000 0.000000 -5.742397 -44.229453 -2.751130 0.000000 0.000001 0.000000 5.947342 0.140203 -0.070398 11.895481 0.464789 -0.236212 0.000000 0.000000 0.000000 11.895482 0.464798 -0.236211 1.078553 -5.582136 -0.546922 0.000000 0.000000 0.000000 11.895482 0.464798 -0.236211 0.886141 -3.734530 -6.257962 -7.277727 11.319154 -60.862340 -1.912542 -56.844062 -5.070191 0.000000 0.000000 0.000000 11.895482 0.464798 -0.236211 1.849867 8.523536 7.171790 5.962374 -24.111212 68.526967 -7.077258 61.206329 7.218171 0.000000 0.000000 0.000000 
-4.138443 88.098518 2.786324 0.000000 0.000000 0.000000 -5.866480 -46.151260 -2.903948 -30.992212 2.929451 15.837296 37.613135 -10.642037 1.924042 -4.204696 1.161411 -13.964247 0.000000 0.000000 0.000000 -5.866480 -46.151260 -2.903948 -4.080371 -13.207599 -19.575310 37.093617 20.312045 -5.775347 -32.258027 -2.624533 7.390815 0.000000 0.000000 0.000000 -5.866480 -46.151260 -2.903948 0.000000 0.000000 0.000000 5.994709 -0.127521 -0.025589 11.989266 -0.070019 -0.121171 0.000000 0.000000 0.000000 11.989278 -0.070046 -0.121160 1.023158 -5.555989 -0.582568 0.000000 0.000000 0.000000 11.989278 -0.070046 -0.121160 0.810233 -4.308825 -6.381135 -6.676086 12.150731 -60.876711 -2.277403 -57.498677 -5.268929 0.000000 0.000000 0.000000 11.989278 -0.070046 -0.121160 1.951321 7.799976 7.121224 6.182276 -23.943566 68.623839 -6.650516 61.549225 7.002546 0.000000 0.000000 0.000000 
-4.254885 88.198250 2.685078 0.000000 0.000000 0.000000 -6.019429 -48.110777 -3.077568 -29.959160 3.317686 16.506151 37.435317 -9.349767 1.756875 -4.747859 1.274905 -14.361460 0.000000 0.000000 0.000000 -6.019429 -48.110777 -3.077568 -5.400566 -12.846348 -19.800763 37.724030 20.755785 -6.197496 -31.725628 -2.614202 7.681507 0.000000 0.000000 0.000000 -6.019429 -48.110777 -3.077568 0.000000 0.000001 0.000000 6.035121 -0.415552 0.023591 12.069949 -0.647007 0.003706 0.000000 0.000000 0.000000 12.069942 -0.647003 0.003699 0.969370 -5.514635 -0.628095 0.000000 0.000000 0.000000 12.069942 -0.647003 0.003699 0.756128 -4.664584 -6.306318 -6.104451 12.854875 -61.074869 -2.488522 -57.874843 -5.355609 0.000000 0.000000 0.000000 12.069942 -0.647003 0.003699 2.018775 7.202339 7.250133 6.408685 -23.946227 68.399857 -6.276782 62.142434 6.935102 0.000000 0.000000 0.000000 
